HIERARCHY
ROOT hip
{
  OFFSET 0 0 0
  CHANNELS 6 Xposition Yposition Zposition Zrotation Yrotation Xrotation
  JOINT abdomen
  {
    OFFSET 0 20.6881 -0.73152
    CHANNELS 3 Zrotation Xrotation Yrotation
    JOINT chest
    {
      OFFSET 0 11.7043 -0.48768
      CHANNELS 3 Zrotation Xrotation Yrotation
      JOINT neck
      {
        OFFSET 0 22.1894 -2.19456
        CHANNELS 3 Zrotation Xrotation Yrotation
        JOINT head
        {
          OFFSET -0.24384 7.07133 1.2192
          CHANNELS 3 Zrotation Xrotation Yrotation
          JOINT leftEye
          {
            OFFSET 4.14528 8.04674 8.04672
            CHANNELS 3 Zrotation Xrotation Yrotation
            End Site
            {
              OFFSET 1 0 0
            }
          }
          JOINT rightEye
          {
            OFFSET -3.6576 8.04674 8.04672
            CHANNELS 3 Zrotation Xrotation Yrotation
            End Site
            {
              OFFSET 1 0 0
            }
          }
        }
      }
      JOINT rCollar
      {
        OFFSET -2.68224 19.2634 -4.8768
        CHANNELS 3 Zrotation Xrotation Yrotation
        JOINT rShldr
        {
          OFFSET -8.77824 -1.95073 1.46304
          CHANNELS 3 Zrotation Xrotation Yrotation
          JOINT rForeArm
          {
            OFFSET -28.1742 -1.7115 0.48768
            CHANNELS 3 Zrotation Xrotation Yrotation
            JOINT rHand
            {
              OFFSET -22.5879 0.773209 7.07136
              CHANNELS 3 Zrotation Xrotation Yrotation
              JOINT rThumb1
              {
                OFFSET -1.2192 -0.487915 3.41376
                CHANNELS 3 Zrotation Xrotation Yrotation
                JOINT rThumb2
                {
                  OFFSET -3.37035 -0.52449 3.41376
                  CHANNELS 3 Zrotation Xrotation Yrotation
                  End Site
                  {
                    OFFSET -1.78271 -1.18214 1.43049
                  }
                }
              }
              JOINT rIndex1
              {
                OFFSET -7.75947 0.938293 5.60832
                CHANNELS 3 Zrotation Xrotation Yrotation
                JOINT rIndex2
                {
                  OFFSET -2.54057 -0.884171 1.56538
                  CHANNELS 3 Zrotation Xrotation Yrotation
                  End Site
                  {
                    OFFSET -1.62519 -0.234802 1.16502
                  }
                }
              }
              JOINT rMid1
              {
                OFFSET -8.24714 1.18213 3.41376
                CHANNELS 3 Zrotation Xrotation Yrotation
                JOINT rMid2
                {
                  OFFSET -3.10165 -0.590103 1.0647
                  CHANNELS 3 Zrotation Xrotation Yrotation
                  End Site
                  {
                    OFFSET -2.48547 -0.328903 0.83742
                  }
                }
              }
              JOINT rRing1
              {
                OFFSET -8.82822 0.546677 1.51678
                CHANNELS 3 Zrotation Xrotation Yrotation
                JOINT rRing2
                {
                  OFFSET -2.60934 -0.819778 -0.0198488
                  CHANNELS 3 Zrotation Xrotation Yrotation
                  End Site
                  {
                    OFFSET -2.33842 -0.294052 0.168128
                  }
                }
              }
              JOINT rPinky1
              {
                OFFSET -8.27202 -0.0477905 -0.4584
                CHANNELS 3 Zrotation Xrotation Yrotation
                JOINT rPinky2
                {
                  OFFSET -1.82734 -0.647385 -0.700984
                  CHANNELS 3 Zrotation Xrotation Yrotation
                  End Site
                  {
                    OFFSET -1.69225 -0.51767 -0.607171
                  }
                }
              }
            }
          }
        }
      }
      JOINT lCollar
      {
        OFFSET 2.68224 19.2634 -4.8768
        CHANNELS 3 Zrotation Xrotation Yrotation
        JOINT lShldr
        {
          OFFSET 8.77824 -1.95073 1.46304
          CHANNELS 3 Zrotation Xrotation Yrotation
          JOINT lForeArm
          {
            OFFSET 28.1742 -1.7115 0.48768
            CHANNELS 3 Zrotation Xrotation Yrotation
            JOINT lHand
            {
              OFFSET 22.5879 0.773209 7.07136
              CHANNELS 3 Zrotation Xrotation Yrotation
              JOINT lThumb1
              {
                OFFSET 1.2192 -0.487915 3.41376
                CHANNELS 3 Zrotation Xrotation Yrotation
                JOINT lThumb2
                {
                  OFFSET 3.37035 -0.52449 3.41376
                  CHANNELS 3 Zrotation Xrotation Yrotation
                  End Site
                  {
                    OFFSET 1.78271 -1.18214 1.43049
                  }
                }
              }
              JOINT lIndex1
              {
                OFFSET 7.75947 0.938293 5.60832
                CHANNELS 3 Zrotation Xrotation Yrotation
                JOINT lIndex2
                {
                  OFFSET 2.54057 -0.884171 1.56538
                  CHANNELS 3 Zrotation Xrotation Yrotation
                  End Site
                  {
                    OFFSET 1.62519 -0.234802 1.16502
                  }
                }
              }
              JOINT lMid1
              {
                OFFSET 8.24714 1.18213 3.41376
                CHANNELS 3 Zrotation Xrotation Yrotation
                JOINT lMid2
                {
                  OFFSET 3.10165 -0.590103 1.0647
                  CHANNELS 3 Zrotation Xrotation Yrotation
                  End Site
                  {
                    OFFSET 2.48547 -0.328903 0.83742
                  }
                }
              }
              JOINT lRing1
              {
                OFFSET 8.82822 0.546677 1.51678
                CHANNELS 3 Zrotation Xrotation Yrotation
                JOINT lRing2
                {
                  OFFSET 2.60934 -0.819778 -0.0198488
                  CHANNELS 3 Zrotation Xrotation Yrotation
                  End Site
                  {
                    OFFSET 2.33842 -0.294052 0.168128
                  }
                }
              }
              JOINT lPinky1
              {
                OFFSET 8.27202 -0.0477905 -0.4584
                CHANNELS 3 Zrotation Xrotation Yrotation
                JOINT lPinky2
                {
                  OFFSET 1.82734 -0.647385 -0.700984
                  CHANNELS 3 Zrotation Xrotation Yrotation
                  End Site
                  {
                    OFFSET 1.69225 -0.51767 -0.607171
                  }
                }
              }
            }
          }
        }
      }
    }
  }
  JOINT rButtock
  {
    OFFSET -8.77824 4.35084 1.2192
    CHANNELS 3 Zrotation Xrotation Yrotation
    JOINT rThigh
    {
      OFFSET 0 -1.70687 -2.19456
      CHANNELS 3 Zrotation Xrotation Yrotation
      JOINT rShin
      {
        OFFSET 0 -36.8199 0.73152
        CHANNELS 3 Zrotation Xrotation Yrotation
        JOINT rFoot
        {
          OFFSET 0.73152 -45.1104 -5.12064
          CHANNELS 3 Zrotation Xrotation Yrotation
          End Site
          {
            OFFSET -1.1221 -3.69964 12.103
          }
        }
      }
    }
  }
  JOINT lButtock
  {
    OFFSET 8.77824 4.35084 1.2192
    CHANNELS 3 Zrotation Xrotation Yrotation
    JOINT lThigh
    {
      OFFSET 0 -1.70687 -2.19456
      CHANNELS 3 Zrotation Xrotation Yrotation
      JOINT lShin
      {
        OFFSET 0 -36.8199 0.73152
        CHANNELS 3 Zrotation Xrotation Yrotation
        JOINT lFoot
        {
          OFFSET -0.73152 -45.1104 -5.12064
          CHANNELS 3 Zrotation Xrotation Yrotation
          End Site
          {
            OFFSET 1.1221 -3.69964 12.103
          }
        }
      }
    }
  }
}
MOTION
Frames:	4
Frame Time:	0.00833333
-1.0906 83.9691 0.2533 538.90796 -2.1748998 191.16199 5.8127 -3.76913 0.09662129 -0.74259496 1.1751499 -0.0107913995 1.6993399 7.313579 2.8490899 -8.27526 12.732299 -0.19748798 -0.0 0.0 0.0 -0.0 0.0 0.0 -1.32343985e-14 6.8619994e-15 -4.2518198e-14 64.983696 12.823299 2.29599 -27.791397 -29.4889 66.43739 -1.44654 -32.0117 -5.04037 8.7293794e-10 1.42058e-09 1.2216599e-09 1.4750099e-09 2.61027e-09 2.1304698e-09 8.7294594e-10 1.4205499e-09 1.2216499e-09 7.73091 5.4748797 0.41731396 8.72936e-10 1.4205499e-09 1.2216599e-09 2.90554 0.96518296 0.102901995 8.7294294e-10 1.42058e-09 1.2216599e-09 10.278599 0.7318009 0.0259123 8.729329e-10 1.42058e-09 1.22167e-09 2.22167 -0.733487 -0.20891999 -1.3322799e-14 6.8539297e-15 -4.2794598e-14 -77.174995 42.767895 3.5222197 28.2862 -32.7413 -71.6459 26.024298 -75.5973 33.180897 -8.96211e-10 -4.37429e-09 7.2718394e-11 -1.5361299e-09 -7.2986093e-09 6.82098e-11 -8.9621593e-10 -4.37429e-09 7.27252e-11 -7.73091 5.4748797 -0.41731396 -8.96211e-10 -4.37429e-09 7.27202e-11 -2.90554 0.96518296 -0.102901995 -8.9621993e-10 -4.3742996e-09 7.27161e-11 -10.278599 0.7318009 -0.0259123 -8.9620095e-10 -4.37429e-09 7.27102e-11 -2.22167 -0.733487 0.20891999 -2.0321698e-16 0.0 -3.8825097e-19 -2.4024198 -21.890099 -5.38448 -0.136907 31.719599 0.61158895 -4.21936 -8.24809 -17.881899 2.0321698e-16 0.0 3.8825097e-19 8.685069 -30.7293 13.5433 0.40243798 42.5373 -0.753765 1.6742399 -1.3201299 9.889629
-2.2124 84.1929 0.5464 538.77594 -3.9732997 191.21799 5.4256897 -4.1332097 -0.60569996 -0.784 1.1526299 -0.23620398 1.6674999 7.32374 2.5290499 -8.57078 12.5856 -0.0316525 -0.0 0.0 0.0 -0.0 0.0 0.0 -8.868829e-14 3.5940099e-13 -8.9353695e-14 65.96539 13.5883 0.69176495 -27.791397 -29.4871 66.4308 -1.5140799 -32.648796 -5.16639 2.29113e-09 8.66641e-09 4.37361e-09 3.84442e-09 1.54066e-08 7.60124e-09 2.29114e-09 8.666389e-09 4.3735997e-09 7.73091 5.4748797 0.41731396 2.29113e-09 8.666389e-09 4.37361e-09 2.90554 0.96518296 0.102901995 2.29113e-09 8.66641e-09 4.37361e-09 10.278599 0.7318009 0.0259123 2.29113e-09 8.66641e-09 4.37363e-09 2.22167 -0.733487 -0.20891999 -8.8732895e-14 3.59405e-13 -8.95028e-14 -75.804596 41.309597 2.12304 28.3203 -33.113396 -72.254295 26.815298 -75.8912 33.997097 -3.34873e-09 -1.5417799e-08 8.291419e-10 -5.77329e-09 -2.5986798e-08 1.2159399e-09 -3.34873e-09 -1.5417799e-08 8.29145e-10 -7.73091 5.4748797 -0.41731396 -3.34873e-09 -1.5417799e-08 8.291419e-10 -2.90554 0.96518296 -0.102901995 -3.34873e-09 -1.5417799e-08 8.291399e-10 -10.278599 0.7318009 -0.0259123 -3.3487095e-09 -1.5417799e-08 8.2913193e-10 -2.22167 -0.733487 0.20891999 -2.0321698e-16 0.0 -3.8825097e-19 -4.7752094 -24.3368 -7.3104596 -0.23232298 35.958397 0.672 -3.5273397 -6.1577096 -16.5706 2.0321698e-16 0.0 3.8825097e-19 5.6776495 -26.2288 11.047299 0.24378398 34.673996 -0.59165496 2.4232 -5.00018 11.109799
-3.1889 84.3419 0.6953 538.37396 -5.878 191.08398 4.4659 -3.9562 -1.8725 -0.68877596 0.8297489 -0.60886496 1.4808799 7.45878 2.68397 -8.997809 12.2378 0.38365498 -0.0 0.0 0.0 -0.0 0.0 0.0 -8.472669e-14 1.97141e-13 -6.5987194e-14 66.8977 16.501898 -1.2301699 -27.858 -29.822199 66.9603 -1.5799499 -33.2544 -5.2876797 1.2490999e-09 5.7657297e-09 2.6007398e-09 2.0898898e-09 1.0208799e-08 4.5177098e-09 1.2491099e-09 5.7657297e-09 2.6007299e-09 7.73091 5.4748797 0.41731396 1.2490999e-09 5.7657297e-09 2.60075e-09 2.90554 0.96518296 0.102901995 1.2491099e-09 5.7657297e-09 2.60075e-09 10.278599 0.7318009 0.0259123 1.2490999e-09 5.7657297e-09 2.60075e-09 2.22167 -0.733487 -0.20891999 -8.47055e-14 1.9714899e-13 -6.6204597e-14 -74.87489 40.2478 1.09285 28.3329 -33.344498 -72.67709 27.311197 -76.066895 34.5083 -2.13308e-09 -1.0092999e-08 6.3920697e-10 -3.6841996e-09 -1.70462e-08 9.62491e-10 -2.13308e-09 -1.0092999e-08 6.3920597e-10 -7.73091 5.4748797 -0.41731396 -2.13308e-09 -1.0092999e-08 6.3920896e-10 -2.90554 0.96518296 -0.102901995 -2.13309e-09 -1.0092999e-08 6.3921096e-10 -10.278599 0.7318009 -0.0259123 -2.13307e-09 -1.0092999e-08 6.3920297e-10 -2.22167 -0.733487 0.20891999 -2.0321698e-16 0.0 -3.8825097e-19 -8.285929 -27.447798 -9.826659 -0.35163596 41.341198 0.76816 -2.6378798 -3.8400998 -14.366399 2.0321698e-16 0.0 3.8825097e-19 2.7558498 -23.1754 8.46855 0.16192499 29.5614 -0.49984998 2.8231797 -6.9583397 11.7891
-3.7779 84.371 0.7986 537.857 -7.4079995 190.75198 3.6364295 -3.85632 -3.2195299 -0.63838196 0.49895298 -1.0019299 1.24701 7.5784693 2.9182098 -9.252399 11.9922 0.9255339 -0.0 0.0 0.0 -0.0 0.0 0.0 -5.1923296e-14 -2.3858199e-14 6.1126298e-15 68.6971 20.134998 -3.4844398 -27.945698 -30.297699 67.7239 -1.64201 -33.806 -5.39983 -1.5507699e-10 1.1790899e-09 2.14353e-10 -2.7513697e-10 2.0536999e-09 3.67345e-10 -1.55072e-10 1.1791099e-09 2.1435e-10 7.73091 5.4748797 0.41731396 -1.5507899e-10 1.1790999e-09 2.1435999e-10 2.90554 0.96518296 0.102901995 -1.55073e-10 1.17908e-09 2.1435399e-10 10.278599 0.7318009 0.0259123 -1.5507899e-10 1.17908e-09 2.1435999e-10 2.22167 -0.733487 -0.20891999 -5.1845796e-14 -2.3849299e-14 5.8144496e-15 -73.781 39.4525 -0.53913397 28.326399 -33.184597 -72.369995 26.963 -75.9443 34.149498 -5.1940396e-10 -3.5316996e-09 3.3464498e-10 -9.0864e-10 -5.99898e-09 5.3801297e-10 -5.1941e-10 -3.53171e-09 3.3464198e-10 -7.73091 5.4748797 -0.41731396 -5.1940297e-10 -3.5316996e-09 3.3464798e-10 -2.90554 0.96518296 -0.102901995 -5.1941396e-10 -3.53171e-09 3.34655e-10 -10.278599 0.7318009 -0.0259123 -5.1939897e-10 -3.5316996e-09 3.3464498e-10 -2.22167 -0.733487 0.20891999 -2.0321698e-16 0.0 -3.8825097e-19 -10.965699 -29.4523 -11.6470995 -0.444499 44.9659 0.85222495 -2.2559898 -2.47746 -13.4609995 2.0321698e-16 0.0 3.8825097e-19 0.5974609 -21.076399 6.2608695 0.113115 25.9243 -0.43869197 3.0472498 -8.396409 11.903799
